<mxfile host="app.diagrams.net" modified="2024-01-25T11:10:16.847Z" agent="Mozilla/5.0 (Windows NT 10.0; Win64; x64) AppleWebKit/537.36 (KHTML, like Gecko) Chrome/121.0.0.0 Safari/537.36" etag="RP0mds9J9Z03WdiA0Il0" version="23.0.1" type="google">
  <diagram name="PÃ¡gina-1" id="urGxJ305jiMk8CuC3QDb">
    <mxGraphModel grid="1" page="1" gridSize="10" guides="1" tooltips="1" connect="1" arrows="1" fold="1" pageScale="1" pageWidth="827" pageHeight="1169" math="0" shadow="0">
      <root>
        <mxCell id="0" />
        <mxCell id="1" parent="0" />
        <mxCell id="D8Nsdqt08Oqrvitqr5ih-1" value="Empleados" style="rounded=0;whiteSpace=wrap;html=1;" vertex="1" parent="1">
          <mxGeometry x="610" y="-440" width="120" height="60" as="geometry" />
        </mxCell>
        <mxCell id="D8Nsdqt08Oqrvitqr5ih-2" value="Reservas" style="rounded=0;whiteSpace=wrap;html=1;" vertex="1" parent="1">
          <mxGeometry x="170" y="-700" width="120" height="60" as="geometry" />
        </mxCell>
        <mxCell id="EQmgPOtzV4q--lYFnlzx-1" value="Trabajan" style="rhombus;whiteSpace=wrap;html=1;" vertex="1" parent="1">
          <mxGeometry x="410" y="-450" width="80" height="80" as="geometry" />
        </mxCell>
        <mxCell id="EQmgPOtzV4q--lYFnlzx-2" value="Restaurante" style="rounded=0;whiteSpace=wrap;html=1;" vertex="1" parent="1">
          <mxGeometry x="170" y="-440" width="120" height="60" as="geometry" />
        </mxCell>
        <mxCell id="EQmgPOtzV4q--lYFnlzx-3" value="Tener" style="rhombus;whiteSpace=wrap;html=1;" vertex="1" parent="1">
          <mxGeometry x="190" y="-580" width="80" height="80" as="geometry" />
        </mxCell>
        <mxCell id="EQmgPOtzV4q--lYFnlzx-4" value="" style="endArrow=none;html=1;rounded=0;exitX=0.5;exitY=0;exitDx=0;exitDy=0;entryX=0.5;entryY=1;entryDx=0;entryDy=0;" edge="1" parent="1" source="EQmgPOtzV4q--lYFnlzx-3" target="D8Nsdqt08Oqrvitqr5ih-2">
          <mxGeometry width="50" height="50" relative="1" as="geometry">
            <mxPoint x="330" y="-570" as="sourcePoint" />
            <mxPoint x="380" y="-620" as="targetPoint" />
          </mxGeometry>
        </mxCell>
        <mxCell id="EQmgPOtzV4q--lYFnlzx-5" value="" style="endArrow=none;html=1;rounded=0;exitX=0.5;exitY=0;exitDx=0;exitDy=0;entryX=0.5;entryY=1;entryDx=0;entryDy=0;" edge="1" parent="1" source="EQmgPOtzV4q--lYFnlzx-2" target="EQmgPOtzV4q--lYFnlzx-3">
          <mxGeometry width="50" height="50" relative="1" as="geometry">
            <mxPoint x="330" y="-570" as="sourcePoint" />
            <mxPoint x="380" y="-620" as="targetPoint" />
          </mxGeometry>
        </mxCell>
        <mxCell id="EQmgPOtzV4q--lYFnlzx-6" value="" style="endArrow=none;html=1;rounded=0;exitX=1;exitY=0.5;exitDx=0;exitDy=0;" edge="1" parent="1" source="EQmgPOtzV4q--lYFnlzx-2" target="EQmgPOtzV4q--lYFnlzx-1">
          <mxGeometry width="50" height="50" relative="1" as="geometry">
            <mxPoint x="330" y="-570" as="sourcePoint" />
            <mxPoint x="380" y="-620" as="targetPoint" />
          </mxGeometry>
        </mxCell>
        <mxCell id="EQmgPOtzV4q--lYFnlzx-7" value="" style="endArrow=none;html=1;rounded=0;exitX=1;exitY=0.5;exitDx=0;exitDy=0;" edge="1" parent="1" source="EQmgPOtzV4q--lYFnlzx-1" target="D8Nsdqt08Oqrvitqr5ih-1">
          <mxGeometry width="50" height="50" relative="1" as="geometry">
            <mxPoint x="330" y="-570" as="sourcePoint" />
            <mxPoint x="380" y="-620" as="targetPoint" />
          </mxGeometry>
        </mxCell>
        <mxCell id="EQmgPOtzV4q--lYFnlzx-8" value="Tener" style="rhombus;whiteSpace=wrap;html=1;" vertex="1" parent="1">
          <mxGeometry x="190" y="-320" width="80" height="80" as="geometry" />
        </mxCell>
        <mxCell id="EQmgPOtzV4q--lYFnlzx-9" value="" style="endArrow=none;html=1;rounded=0;exitX=0.5;exitY=0;exitDx=0;exitDy=0;entryX=0.5;entryY=1;entryDx=0;entryDy=0;" edge="1" parent="1" source="EQmgPOtzV4q--lYFnlzx-8" target="EQmgPOtzV4q--lYFnlzx-2">
          <mxGeometry width="50" height="50" relative="1" as="geometry">
            <mxPoint x="340" y="-310" as="sourcePoint" />
            <mxPoint x="390" y="-360" as="targetPoint" />
          </mxGeometry>
        </mxCell>
        <mxCell id="EQmgPOtzV4q--lYFnlzx-10" value="Carta" style="rounded=0;whiteSpace=wrap;html=1;" vertex="1" parent="1">
          <mxGeometry x="170" y="-180" width="120" height="60" as="geometry" />
        </mxCell>
        <mxCell id="EQmgPOtzV4q--lYFnlzx-11" value="" style="endArrow=none;html=1;rounded=0;exitX=0.5;exitY=0;exitDx=0;exitDy=0;entryX=0.5;entryY=1;entryDx=0;entryDy=0;" edge="1" parent="1" source="EQmgPOtzV4q--lYFnlzx-10" target="EQmgPOtzV4q--lYFnlzx-8">
          <mxGeometry width="50" height="50" relative="1" as="geometry">
            <mxPoint x="340" y="-190" as="sourcePoint" />
            <mxPoint x="390" y="-240" as="targetPoint" />
          </mxGeometry>
        </mxCell>
        <mxCell id="EQmgPOtzV4q--lYFnlzx-14" value="descripcion" style="ellipse;whiteSpace=wrap;html=1;" vertex="1" parent="1">
          <mxGeometry x="270" y="-100" width="80" height="50" as="geometry" />
        </mxCell>
        <mxCell id="EQmgPOtzV4q--lYFnlzx-16" value="&lt;b&gt;&lt;u&gt;idPlatos&lt;/u&gt;&lt;/b&gt;" style="ellipse;whiteSpace=wrap;html=1;" vertex="1" parent="1">
          <mxGeometry x="310" y="-175" width="80" height="50" as="geometry" />
        </mxCell>
        <mxCell id="EQmgPOtzV4q--lYFnlzx-17" value="&lt;b&gt;&lt;u&gt;idCarta&lt;/u&gt;&lt;/b&gt;" style="ellipse;whiteSpace=wrap;html=1;" vertex="1" parent="1">
          <mxGeometry x="160" y="-90" width="80" height="50" as="geometry" />
        </mxCell>
        <mxCell id="EQmgPOtzV4q--lYFnlzx-18" value="" style="endArrow=none;html=1;rounded=0;exitX=0.5;exitY=0;exitDx=0;exitDy=0;entryX=0.5;entryY=1;entryDx=0;entryDy=0;" edge="1" parent="1" source="EQmgPOtzV4q--lYFnlzx-14" target="EQmgPOtzV4q--lYFnlzx-10">
          <mxGeometry width="50" height="50" relative="1" as="geometry">
            <mxPoint x="350" y="-50" as="sourcePoint" />
            <mxPoint x="400" y="-100" as="targetPoint" />
          </mxGeometry>
        </mxCell>
        <mxCell id="EQmgPOtzV4q--lYFnlzx-19" value="" style="endArrow=none;html=1;rounded=0;exitX=1;exitY=0.5;exitDx=0;exitDy=0;entryX=0;entryY=0.5;entryDx=0;entryDy=0;" edge="1" parent="1" source="EQmgPOtzV4q--lYFnlzx-10" target="EQmgPOtzV4q--lYFnlzx-16">
          <mxGeometry width="50" height="50" relative="1" as="geometry">
            <mxPoint x="350" y="-50" as="sourcePoint" />
            <mxPoint x="400" y="-100" as="targetPoint" />
          </mxGeometry>
        </mxCell>
        <mxCell id="EQmgPOtzV4q--lYFnlzx-20" value="" style="endArrow=none;html=1;rounded=0;exitX=1;exitY=0.5;exitDx=0;exitDy=0;" edge="1" parent="1" source="EQmgPOtzV4q--lYFnlzx-17" target="EQmgPOtzV4q--lYFnlzx-10">
          <mxGeometry width="50" height="50" relative="1" as="geometry">
            <mxPoint x="350" y="-50" as="sourcePoint" />
            <mxPoint x="400" y="-100" as="targetPoint" />
          </mxGeometry>
        </mxCell>
        <mxCell id="EQmgPOtzV4q--lYFnlzx-26" value="" style="endArrow=none;html=1;rounded=0;exitX=0;exitY=0;exitDx=0;exitDy=0;entryX=1;entryY=0.8;entryDx=0;entryDy=0;entryPerimeter=0;" edge="1" parent="1" source="D8Nsdqt08Oqrvitqr5ih-1" target="ZjFc2ZHjRsvz4WhmtQTJ-22">
          <mxGeometry width="50" height="50" relative="1" as="geometry">
            <mxPoint x="330" y="-490" as="sourcePoint" />
            <mxPoint x="680" y="-510" as="targetPoint" />
          </mxGeometry>
        </mxCell>
        <mxCell id="EQmgPOtzV4q--lYFnlzx-27" value="&lt;b&gt;&lt;u&gt;idEmpleado&lt;/u&gt;&lt;/b&gt;" style="ellipse;whiteSpace=wrap;html=1;" vertex="1" parent="1">
          <mxGeometry x="460" y="-590" width="90" height="30" as="geometry" />
        </mxCell>
        <mxCell id="EQmgPOtzV4q--lYFnlzx-28" value="cargo" style="ellipse;whiteSpace=wrap;html=1;" vertex="1" parent="1">
          <mxGeometry x="600" y="-585" width="60" height="30" as="geometry" />
        </mxCell>
        <mxCell id="EQmgPOtzV4q--lYFnlzx-29" value="nombre" style="ellipse;whiteSpace=wrap;html=1;" vertex="1" parent="1">
          <mxGeometry x="680" y="-599" width="60" height="30" as="geometry" />
        </mxCell>
        <mxCell id="EQmgPOtzV4q--lYFnlzx-30" value="apellido" style="ellipse;whiteSpace=wrap;html=1;" vertex="1" parent="1">
          <mxGeometry x="750" y="-569" width="60" height="30" as="geometry" />
        </mxCell>
        <mxCell id="EQmgPOtzV4q--lYFnlzx-31" value="" style="endArrow=none;html=1;rounded=0;entryX=0.183;entryY=-0.017;entryDx=0;entryDy=0;exitX=1;exitY=1;exitDx=0;exitDy=0;entryPerimeter=0;" edge="1" parent="1" source="EQmgPOtzV4q--lYFnlzx-27" target="D8Nsdqt08Oqrvitqr5ih-1">
          <mxGeometry width="50" height="50" relative="1" as="geometry">
            <mxPoint x="330" y="-490" as="sourcePoint" />
            <mxPoint x="641.7157287525383" y="-512.6776695296635" as="targetPoint" />
          </mxGeometry>
        </mxCell>
        <mxCell id="EQmgPOtzV4q--lYFnlzx-32" value="" style="endArrow=none;html=1;rounded=0;exitX=0.25;exitY=0;exitDx=0;exitDy=0;entryX=0.5;entryY=1;entryDx=0;entryDy=0;" edge="1" parent="1" source="D8Nsdqt08Oqrvitqr5ih-1" target="EQmgPOtzV4q--lYFnlzx-28">
          <mxGeometry width="50" height="50" relative="1" as="geometry">
            <mxPoint x="670" y="-520" as="sourcePoint" />
            <mxPoint x="380" y="-540" as="targetPoint" />
          </mxGeometry>
        </mxCell>
        <mxCell id="EQmgPOtzV4q--lYFnlzx-33" value="" style="endArrow=none;html=1;rounded=0;exitX=0.75;exitY=0;exitDx=0;exitDy=0;entryX=0;entryY=1;entryDx=0;entryDy=0;" edge="1" parent="1" source="D8Nsdqt08Oqrvitqr5ih-1" target="EQmgPOtzV4q--lYFnlzx-30">
          <mxGeometry width="50" height="50" relative="1" as="geometry">
            <mxPoint x="698.2842712474617" y="-512.6776695296635" as="sourcePoint" />
            <mxPoint x="380" y="-540" as="targetPoint" />
          </mxGeometry>
        </mxCell>
        <mxCell id="EQmgPOtzV4q--lYFnlzx-34" value="" style="endArrow=none;html=1;rounded=0;exitX=0.583;exitY=-0.067;exitDx=0;exitDy=0;entryX=0.5;entryY=1;entryDx=0;entryDy=0;exitPerimeter=0;" edge="1" parent="1" source="D8Nsdqt08Oqrvitqr5ih-1" target="EQmgPOtzV4q--lYFnlzx-29">
          <mxGeometry width="50" height="50" relative="1" as="geometry">
            <mxPoint x="670" y="-520" as="sourcePoint" />
            <mxPoint x="380" y="-540" as="targetPoint" />
          </mxGeometry>
        </mxCell>
        <mxCell id="EQmgPOtzV4q--lYFnlzx-35" value="DNI" style="ellipse;whiteSpace=wrap;html=1;" vertex="1" parent="1">
          <mxGeometry x="240" y="-820" width="60" height="30" as="geometry" />
        </mxCell>
        <mxCell id="EQmgPOtzV4q--lYFnlzx-36" value="Nombre" style="ellipse;whiteSpace=wrap;html=1;" vertex="1" parent="1">
          <mxGeometry x="160" y="-820" width="60" height="30" as="geometry" />
        </mxCell>
        <mxCell id="EQmgPOtzV4q--lYFnlzx-37" value="Apellido" style="ellipse;whiteSpace=wrap;html=1;" vertex="1" parent="1">
          <mxGeometry x="100" y="-800" width="60" height="30" as="geometry" />
        </mxCell>
        <mxCell id="EQmgPOtzV4q--lYFnlzx-38" value="Correo Electronico" style="ellipse;whiteSpace=wrap;html=1;" vertex="1" parent="1">
          <mxGeometry x="350" y="-750" width="80" height="40" as="geometry" />
        </mxCell>
        <mxCell id="EQmgPOtzV4q--lYFnlzx-39" value="Numero de Personas" style="ellipse;whiteSpace=wrap;html=1;" vertex="1" parent="1">
          <mxGeometry x="50" y="-770" width="70" height="60" as="geometry" />
        </mxCell>
        <mxCell id="EQmgPOtzV4q--lYFnlzx-40" value="telefono" style="ellipse;whiteSpace=wrap;html=1;" vertex="1" parent="1">
          <mxGeometry x="300" y="-805" width="70" height="60" as="geometry" />
        </mxCell>
        <mxCell id="EQmgPOtzV4q--lYFnlzx-41" value="" style="endArrow=none;html=1;rounded=0;exitX=0.25;exitY=0;exitDx=0;exitDy=0;entryX=1;entryY=0.5;entryDx=0;entryDy=0;" edge="1" parent="1" source="D8Nsdqt08Oqrvitqr5ih-2" target="EQmgPOtzV4q--lYFnlzx-39">
          <mxGeometry width="50" height="50" relative="1" as="geometry">
            <mxPoint x="330" y="-730" as="sourcePoint" />
            <mxPoint x="380" y="-780" as="targetPoint" />
          </mxGeometry>
        </mxCell>
        <mxCell id="EQmgPOtzV4q--lYFnlzx-42" value="" style="endArrow=none;html=1;rounded=0;exitX=0.25;exitY=0;exitDx=0;exitDy=0;entryX=1;entryY=1;entryDx=0;entryDy=0;" edge="1" parent="1" source="D8Nsdqt08Oqrvitqr5ih-2" target="EQmgPOtzV4q--lYFnlzx-37">
          <mxGeometry width="50" height="50" relative="1" as="geometry">
            <mxPoint x="330" y="-730" as="sourcePoint" />
            <mxPoint x="380" y="-780" as="targetPoint" />
          </mxGeometry>
        </mxCell>
        <mxCell id="EQmgPOtzV4q--lYFnlzx-43" value="" style="endArrow=none;html=1;rounded=0;exitX=0.75;exitY=0;exitDx=0;exitDy=0;entryX=0;entryY=0.5;entryDx=0;entryDy=0;" edge="1" parent="1" source="D8Nsdqt08Oqrvitqr5ih-2" target="EQmgPOtzV4q--lYFnlzx-38">
          <mxGeometry width="50" height="50" relative="1" as="geometry">
            <mxPoint x="330" y="-730" as="sourcePoint" />
            <mxPoint x="380" y="-780" as="targetPoint" />
          </mxGeometry>
        </mxCell>
        <mxCell id="EQmgPOtzV4q--lYFnlzx-44" value="" style="endArrow=none;html=1;rounded=0;exitX=0.75;exitY=0;exitDx=0;exitDy=0;entryX=0;entryY=1;entryDx=0;entryDy=0;" edge="1" parent="1" source="D8Nsdqt08Oqrvitqr5ih-2" target="EQmgPOtzV4q--lYFnlzx-40">
          <mxGeometry width="50" height="50" relative="1" as="geometry">
            <mxPoint x="330" y="-730" as="sourcePoint" />
            <mxPoint x="380" y="-780" as="targetPoint" />
          </mxGeometry>
        </mxCell>
        <mxCell id="EQmgPOtzV4q--lYFnlzx-45" value="" style="endArrow=none;html=1;rounded=0;exitX=0.5;exitY=0;exitDx=0;exitDy=0;entryX=0.5;entryY=1;entryDx=0;entryDy=0;" edge="1" parent="1" source="D8Nsdqt08Oqrvitqr5ih-2" target="EQmgPOtzV4q--lYFnlzx-36">
          <mxGeometry width="50" height="50" relative="1" as="geometry">
            <mxPoint x="330" y="-730" as="sourcePoint" />
            <mxPoint x="380" y="-780" as="targetPoint" />
          </mxGeometry>
        </mxCell>
        <mxCell id="EQmgPOtzV4q--lYFnlzx-46" value="" style="endArrow=none;html=1;rounded=0;entryX=0.5;entryY=1;entryDx=0;entryDy=0;exitX=0.5;exitY=0;exitDx=0;exitDy=0;" edge="1" parent="1" source="D8Nsdqt08Oqrvitqr5ih-2" target="EQmgPOtzV4q--lYFnlzx-35">
          <mxGeometry width="50" height="50" relative="1" as="geometry">
            <mxPoint x="330" y="-730" as="sourcePoint" />
            <mxPoint x="380" y="-780" as="targetPoint" />
          </mxGeometry>
        </mxCell>
        <mxCell id="EQmgPOtzV4q--lYFnlzx-47" value="Hora" style="ellipse;whiteSpace=wrap;html=1;" vertex="1" parent="1">
          <mxGeometry x="195" y="-860" width="70" height="30" as="geometry" />
        </mxCell>
        <mxCell id="EQmgPOtzV4q--lYFnlzx-48" value="" style="endArrow=none;html=1;rounded=0;exitX=0.5;exitY=0;exitDx=0;exitDy=0;entryX=0.5;entryY=1;entryDx=0;entryDy=0;" edge="1" parent="1" source="D8Nsdqt08Oqrvitqr5ih-2" target="EQmgPOtzV4q--lYFnlzx-47">
          <mxGeometry width="50" height="50" relative="1" as="geometry">
            <mxPoint x="330" y="-610" as="sourcePoint" />
            <mxPoint x="380" y="-660" as="targetPoint" />
          </mxGeometry>
        </mxCell>
        <mxCell id="ZjFc2ZHjRsvz4WhmtQTJ-1" value="Clientes" style="rounded=0;whiteSpace=wrap;html=1;" vertex="1" parent="1">
          <mxGeometry x="-130" y="-570" width="120" height="60" as="geometry" />
        </mxCell>
        <mxCell id="ZjFc2ZHjRsvz4WhmtQTJ-2" value="" style="endArrow=none;html=1;rounded=0;exitX=0;exitY=0.5;exitDx=0;exitDy=0;entryX=1;entryY=0.5;entryDx=0;entryDy=0;" edge="1" parent="1" source="EQmgPOtzV4q--lYFnlzx-3" target="ZjFc2ZHjRsvz4WhmtQTJ-1">
          <mxGeometry width="50" height="50" relative="1" as="geometry">
            <mxPoint x="240" y="-430" as="sourcePoint" />
            <mxPoint x="240" y="-490" as="targetPoint" />
          </mxGeometry>
        </mxCell>
        <mxCell id="ZjFc2ZHjRsvz4WhmtQTJ-3" value="Nombre" style="ellipse;whiteSpace=wrap;html=1;" vertex="1" parent="1">
          <mxGeometry x="-100" y="-430" width="60" height="30" as="geometry" />
        </mxCell>
        <mxCell id="ZjFc2ZHjRsvz4WhmtQTJ-4" value="Apellido" style="ellipse;whiteSpace=wrap;html=1;" vertex="1" parent="1">
          <mxGeometry x="-180" y="-430" width="60" height="30" as="geometry" />
        </mxCell>
        <mxCell id="ZjFc2ZHjRsvz4WhmtQTJ-5" value="&lt;b&gt;&lt;u&gt;idReserva&lt;/u&gt;&lt;/b&gt;" style="ellipse;whiteSpace=wrap;html=1;" vertex="1" parent="1">
          <mxGeometry x="350" y="-685" width="60" height="30" as="geometry" />
        </mxCell>
        <mxCell id="ZjFc2ZHjRsvz4WhmtQTJ-7" value="" style="endArrow=none;html=1;rounded=0;exitX=1;exitY=0.5;exitDx=0;exitDy=0;entryX=0;entryY=0.5;entryDx=0;entryDy=0;" edge="1" parent="1" source="D8Nsdqt08Oqrvitqr5ih-2" target="ZjFc2ZHjRsvz4WhmtQTJ-5">
          <mxGeometry width="50" height="50" relative="1" as="geometry">
            <mxPoint x="270" y="-690" as="sourcePoint" />
            <mxPoint x="360" y="-720" as="targetPoint" />
          </mxGeometry>
        </mxCell>
        <mxCell id="ZjFc2ZHjRsvz4WhmtQTJ-9" value="&lt;u&gt;&lt;b&gt;idCliente&lt;/b&gt;&lt;/u&gt;" style="ellipse;whiteSpace=wrap;html=1;" vertex="1" parent="1">
          <mxGeometry x="-220" y="-550" width="60" height="30" as="geometry" />
        </mxCell>
        <mxCell id="ZjFc2ZHjRsvz4WhmtQTJ-10" value="horarioReserva" style="ellipse;whiteSpace=wrap;html=1;" vertex="1" parent="1">
          <mxGeometry x="-50" y="-470" width="60" height="30" as="geometry" />
        </mxCell>
        <mxCell id="ZjFc2ZHjRsvz4WhmtQTJ-11" value="telefono" style="ellipse;whiteSpace=wrap;html=1;" vertex="1" parent="1">
          <mxGeometry x="-220" y="-510" width="60" height="30" as="geometry" />
        </mxCell>
        <mxCell id="ZjFc2ZHjRsvz4WhmtQTJ-12" value="mesa" style="ellipse;whiteSpace=wrap;html=1;" vertex="1" parent="1">
          <mxGeometry x="-220" y="-470" width="60" height="30" as="geometry" />
        </mxCell>
        <mxCell id="ZjFc2ZHjRsvz4WhmtQTJ-14" value="" style="endArrow=none;html=1;rounded=0;exitX=0.5;exitY=0;exitDx=0;exitDy=0;entryX=1;entryY=0.5;entryDx=0;entryDy=0;" edge="1" parent="1" source="ZjFc2ZHjRsvz4WhmtQTJ-10">
          <mxGeometry width="50" height="50" relative="1" as="geometry">
            <mxPoint x="60" y="-470" as="sourcePoint" />
            <mxPoint x="-20" y="-510" as="targetPoint" />
          </mxGeometry>
        </mxCell>
        <mxCell id="ZjFc2ZHjRsvz4WhmtQTJ-16" value="" style="endArrow=none;html=1;rounded=0;exitX=0.5;exitY=0;exitDx=0;exitDy=0;entryX=0.417;entryY=1;entryDx=0;entryDy=0;entryPerimeter=0;" edge="1" parent="1" source="ZjFc2ZHjRsvz4WhmtQTJ-3" target="ZjFc2ZHjRsvz4WhmtQTJ-1">
          <mxGeometry width="50" height="50" relative="1" as="geometry">
            <mxPoint x="-10" y="-460" as="sourcePoint" />
            <mxPoint x="-10" y="-500" as="targetPoint" />
          </mxGeometry>
        </mxCell>
        <mxCell id="ZjFc2ZHjRsvz4WhmtQTJ-17" value="" style="endArrow=none;html=1;rounded=0;exitX=1;exitY=0;exitDx=0;exitDy=0;entryX=0.417;entryY=1;entryDx=0;entryDy=0;entryPerimeter=0;" edge="1" parent="1" source="ZjFc2ZHjRsvz4WhmtQTJ-4">
          <mxGeometry width="50" height="50" relative="1" as="geometry">
            <mxPoint x="-120" y="-430" as="sourcePoint" />
            <mxPoint x="-130" y="-510" as="targetPoint" />
          </mxGeometry>
        </mxCell>
        <mxCell id="ZjFc2ZHjRsvz4WhmtQTJ-18" value="" style="endArrow=none;html=1;rounded=0;exitX=0.175;exitY=1.017;exitDx=0;exitDy=0;entryX=1;entryY=0.5;entryDx=0;entryDy=0;exitPerimeter=0;" edge="1" parent="1" source="ZjFc2ZHjRsvz4WhmtQTJ-1" target="ZjFc2ZHjRsvz4WhmtQTJ-12">
          <mxGeometry width="50" height="50" relative="1" as="geometry">
            <mxPoint x="-50" y="-410" as="sourcePoint" />
            <mxPoint x="-60" y="-490" as="targetPoint" />
          </mxGeometry>
        </mxCell>
        <mxCell id="ZjFc2ZHjRsvz4WhmtQTJ-19" value="" style="endArrow=none;html=1;rounded=0;exitX=1;exitY=0.5;exitDx=0;exitDy=0;entryX=0;entryY=0.75;entryDx=0;entryDy=0;" edge="1" parent="1" source="ZjFc2ZHjRsvz4WhmtQTJ-11" target="ZjFc2ZHjRsvz4WhmtQTJ-1">
          <mxGeometry width="50" height="50" relative="1" as="geometry">
            <mxPoint x="300" y="-660" as="sourcePoint" />
            <mxPoint x="360" y="-660" as="targetPoint" />
          </mxGeometry>
        </mxCell>
        <mxCell id="ZjFc2ZHjRsvz4WhmtQTJ-20" value="" style="endArrow=none;html=1;rounded=0;exitX=1;exitY=0.5;exitDx=0;exitDy=0;entryX=0;entryY=0.5;entryDx=0;entryDy=0;" edge="1" parent="1" source="ZjFc2ZHjRsvz4WhmtQTJ-9" target="ZjFc2ZHjRsvz4WhmtQTJ-1">
          <mxGeometry width="50" height="50" relative="1" as="geometry">
            <mxPoint x="-150" y="-485" as="sourcePoint" />
            <mxPoint x="-120" y="-515" as="targetPoint" />
          </mxGeometry>
        </mxCell>
        <mxCell id="ZjFc2ZHjRsvz4WhmtQTJ-21" value="DNI" style="ellipse;whiteSpace=wrap;html=1;" vertex="1" parent="1">
          <mxGeometry x="750" y="-520" width="60" height="30" as="geometry" />
        </mxCell>
        <mxCell id="ZjFc2ZHjRsvz4WhmtQTJ-22" value="telefono" style="ellipse;whiteSpace=wrap;html=1;" vertex="1" parent="1">
          <mxGeometry x="450" y="-550" width="80" height="40" as="geometry" />
        </mxCell>
        <mxCell id="ZjFc2ZHjRsvz4WhmtQTJ-23" value="horasTrabajadas" style="ellipse;whiteSpace=wrap;html=1;" vertex="1" parent="1">
          <mxGeometry x="520" y="-630" width="60" height="30" as="geometry" />
        </mxCell>
        <mxCell id="ZjFc2ZHjRsvz4WhmtQTJ-24" value="salario" style="ellipse;whiteSpace=wrap;html=1;" vertex="1" parent="1">
          <mxGeometry x="740" y="-615" width="60" height="30" as="geometry" />
        </mxCell>
        <mxCell id="ZjFc2ZHjRsvz4WhmtQTJ-25" value="fechaComienzo" style="ellipse;whiteSpace=wrap;html=1;" vertex="1" parent="1">
          <mxGeometry x="625" y="-640" width="90" height="30" as="geometry" />
        </mxCell>
        <mxCell id="ZjFc2ZHjRsvz4WhmtQTJ-26" value="" style="endArrow=none;html=1;rounded=0;exitX=0.45;exitY=-0.05;exitDx=0;exitDy=0;entryX=0.65;entryY=1.067;entryDx=0;entryDy=0;exitPerimeter=0;entryPerimeter=0;" edge="1" parent="1" source="D8Nsdqt08Oqrvitqr5ih-1" target="ZjFc2ZHjRsvz4WhmtQTJ-23">
          <mxGeometry width="50" height="50" relative="1" as="geometry">
            <mxPoint x="650" y="-430" as="sourcePoint" />
            <mxPoint x="640" y="-545" as="targetPoint" />
          </mxGeometry>
        </mxCell>
        <mxCell id="ZjFc2ZHjRsvz4WhmtQTJ-27" value="" style="endArrow=none;html=1;rounded=0;exitX=1;exitY=0;exitDx=0;exitDy=0;entryX=0.5;entryY=1;entryDx=0;entryDy=0;" edge="1" parent="1" source="D8Nsdqt08Oqrvitqr5ih-1" target="ZjFc2ZHjRsvz4WhmtQTJ-21">
          <mxGeometry width="50" height="50" relative="1" as="geometry">
            <mxPoint x="710" y="-430" as="sourcePoint" />
            <mxPoint x="759" y="-519" as="targetPoint" />
          </mxGeometry>
        </mxCell>
        <mxCell id="ZjFc2ZHjRsvz4WhmtQTJ-28" value="" style="endArrow=none;html=1;rounded=0;exitX=0.7;exitY=-0.083;exitDx=0;exitDy=0;entryX=0.283;entryY=0.933;entryDx=0;entryDy=0;exitPerimeter=0;entryPerimeter=0;" edge="1" parent="1" source="D8Nsdqt08Oqrvitqr5ih-1" target="ZjFc2ZHjRsvz4WhmtQTJ-24">
          <mxGeometry width="50" height="50" relative="1" as="geometry">
            <mxPoint x="710" y="-430" as="sourcePoint" />
            <mxPoint x="759" y="-519" as="targetPoint" />
          </mxGeometry>
        </mxCell>
        <mxCell id="ZjFc2ZHjRsvz4WhmtQTJ-29" value="" style="endArrow=none;html=1;rounded=0;exitX=0.5;exitY=0;exitDx=0;exitDy=0;entryX=0.5;entryY=1;entryDx=0;entryDy=0;" edge="1" parent="1" source="D8Nsdqt08Oqrvitqr5ih-1" target="ZjFc2ZHjRsvz4WhmtQTJ-25">
          <mxGeometry width="50" height="50" relative="1" as="geometry">
            <mxPoint x="690" y="-434" as="sourcePoint" />
            <mxPoint x="720" y="-540" as="targetPoint" />
          </mxGeometry>
        </mxCell>
        <mxCell id="ZjFc2ZHjRsvz4WhmtQTJ-31" value="Tener" style="rhombus;whiteSpace=wrap;html=1;" vertex="1" parent="1">
          <mxGeometry x="630" y="-350" width="80" height="80" as="geometry" />
        </mxCell>
        <mxCell id="ZjFc2ZHjRsvz4WhmtQTJ-32" value="" style="endArrow=none;html=1;rounded=0;exitX=0.5;exitY=0;exitDx=0;exitDy=0;" edge="1" parent="1" source="ZjFc2ZHjRsvz4WhmtQTJ-31">
          <mxGeometry width="50" height="50" relative="1" as="geometry">
            <mxPoint x="669.5" y="-330" as="sourcePoint" />
            <mxPoint x="670" y="-380" as="targetPoint" />
          </mxGeometry>
        </mxCell>
        <mxCell id="ZjFc2ZHjRsvz4WhmtQTJ-33" value="" style="endArrow=none;html=1;rounded=0;exitX=0.5;exitY=0;exitDx=0;exitDy=0;entryX=0.5;entryY=1;entryDx=0;entryDy=0;" edge="1" parent="1" source="ZjFc2ZHjRsvz4WhmtQTJ-49" target="ZjFc2ZHjRsvz4WhmtQTJ-31">
          <mxGeometry width="50" height="50" relative="1" as="geometry">
            <mxPoint x="661.96" y="-238.01999999999998" as="sourcePoint" />
            <mxPoint x="250" y="-360" as="targetPoint" />
          </mxGeometry>
        </mxCell>
        <mxCell id="ZjFc2ZHjRsvz4WhmtQTJ-34" value="&lt;u&gt;&lt;b&gt;idCargo&lt;/b&gt;&lt;/u&gt;" style="ellipse;whiteSpace=wrap;html=1;" vertex="1" parent="1">
          <mxGeometry x="480" y="-210" width="80" height="50" as="geometry" />
        </mxCell>
        <mxCell id="ZjFc2ZHjRsvz4WhmtQTJ-35" value="nombre" style="ellipse;whiteSpace=wrap;html=1;" vertex="1" parent="1">
          <mxGeometry x="615" y="-150" width="80" height="50" as="geometry" />
        </mxCell>
        <mxCell id="ZjFc2ZHjRsvz4WhmtQTJ-36" value="descripcion" style="ellipse;whiteSpace=wrap;html=1;" vertex="1" parent="1">
          <mxGeometry x="740" y="-225" width="80" height="50" as="geometry" />
        </mxCell>
        <mxCell id="ZjFc2ZHjRsvz4WhmtQTJ-37" value="" style="endArrow=none;html=1;rounded=0;exitX=1;exitY=0.5;exitDx=0;exitDy=0;entryX=-0.008;entryY=0.617;entryDx=0;entryDy=0;entryPerimeter=0;" edge="1" parent="1" source="ZjFc2ZHjRsvz4WhmtQTJ-34" target="ZjFc2ZHjRsvz4WhmtQTJ-49">
          <mxGeometry width="50" height="50" relative="1" as="geometry">
            <mxPoint x="300" y="-140" as="sourcePoint" />
            <mxPoint x="595" y="-210" as="targetPoint" />
          </mxGeometry>
        </mxCell>
        <mxCell id="ZjFc2ZHjRsvz4WhmtQTJ-38" value="" style="endArrow=none;html=1;rounded=0;exitX=0.5;exitY=1;exitDx=0;exitDy=0;entryX=0.5;entryY=0;entryDx=0;entryDy=0;" edge="1" parent="1" source="ZjFc2ZHjRsvz4WhmtQTJ-49" target="ZjFc2ZHjRsvz4WhmtQTJ-35">
          <mxGeometry width="50" height="50" relative="1" as="geometry">
            <mxPoint x="655" y="-180" as="sourcePoint" />
            <mxPoint x="610" y="-170" as="targetPoint" />
          </mxGeometry>
        </mxCell>
        <mxCell id="ZjFc2ZHjRsvz4WhmtQTJ-39" value="" style="endArrow=none;html=1;rounded=0;exitX=1;exitY=0.667;exitDx=0;exitDy=0;entryX=0;entryY=0.5;entryDx=0;entryDy=0;exitPerimeter=0;" edge="1" parent="1" source="ZjFc2ZHjRsvz4WhmtQTJ-49" target="ZjFc2ZHjRsvz4WhmtQTJ-36">
          <mxGeometry width="50" height="50" relative="1" as="geometry">
            <mxPoint x="715" y="-210" as="sourcePoint" />
            <mxPoint x="610" y="-170" as="targetPoint" />
          </mxGeometry>
        </mxCell>
        <mxCell id="ZjFc2ZHjRsvz4WhmtQTJ-40" value="cocinero" style="ellipse;whiteSpace=wrap;html=1;" vertex="1" parent="1">
          <mxGeometry x="500" y="-80" width="60" height="30" as="geometry" />
        </mxCell>
        <mxCell id="ZjFc2ZHjRsvz4WhmtQTJ-41" value="metre" style="ellipse;whiteSpace=wrap;html=1;" vertex="1" parent="1">
          <mxGeometry x="660" y="-40" width="60" height="30" as="geometry" />
        </mxCell>
        <mxCell id="ZjFc2ZHjRsvz4WhmtQTJ-42" value="recepcionista" style="ellipse;whiteSpace=wrap;html=1;" vertex="1" parent="1">
          <mxGeometry x="560" y="-40" width="60" height="30" as="geometry" />
        </mxCell>
        <mxCell id="ZjFc2ZHjRsvz4WhmtQTJ-43" value="camarero" style="ellipse;whiteSpace=wrap;html=1;" vertex="1" parent="1">
          <mxGeometry x="730" y="-90" width="60" height="30" as="geometry" />
        </mxCell>
        <mxCell id="ZjFc2ZHjRsvz4WhmtQTJ-44" value="" style="endArrow=none;html=1;rounded=0;exitX=1;exitY=0.5;exitDx=0;exitDy=0;entryX=-0.025;entryY=0.76;entryDx=0;entryDy=0;entryPerimeter=0;" edge="1" parent="1" source="ZjFc2ZHjRsvz4WhmtQTJ-40" target="ZjFc2ZHjRsvz4WhmtQTJ-35">
          <mxGeometry width="50" height="50" relative="1" as="geometry">
            <mxPoint x="240" y="-90" as="sourcePoint" />
            <mxPoint x="240" y="-110" as="targetPoint" />
          </mxGeometry>
        </mxCell>
        <mxCell id="ZjFc2ZHjRsvz4WhmtQTJ-46" value="" style="endArrow=none;html=1;rounded=0;exitX=0.5;exitY=0;exitDx=0;exitDy=0;entryX=0;entryY=1;entryDx=0;entryDy=0;" edge="1" parent="1" source="ZjFc2ZHjRsvz4WhmtQTJ-42" target="ZjFc2ZHjRsvz4WhmtQTJ-35">
          <mxGeometry width="50" height="50" relative="1" as="geometry">
            <mxPoint x="570" y="-65" as="sourcePoint" />
            <mxPoint x="618" y="-92" as="targetPoint" />
          </mxGeometry>
        </mxCell>
        <mxCell id="ZjFc2ZHjRsvz4WhmtQTJ-47" value="" style="endArrow=none;html=1;rounded=0;exitX=0.5;exitY=0;exitDx=0;exitDy=0;entryX=0.588;entryY=0.98;entryDx=0;entryDy=0;entryPerimeter=0;" edge="1" parent="1" source="ZjFc2ZHjRsvz4WhmtQTJ-41" target="ZjFc2ZHjRsvz4WhmtQTJ-35">
          <mxGeometry width="50" height="50" relative="1" as="geometry">
            <mxPoint x="580" y="-55" as="sourcePoint" />
            <mxPoint x="628" y="-82" as="targetPoint" />
          </mxGeometry>
        </mxCell>
        <mxCell id="ZjFc2ZHjRsvz4WhmtQTJ-48" value="" style="endArrow=none;html=1;rounded=0;exitX=1;exitY=0.5;exitDx=0;exitDy=0;entryX=0;entryY=0.5;entryDx=0;entryDy=0;" edge="1" parent="1" source="ZjFc2ZHjRsvz4WhmtQTJ-35" target="ZjFc2ZHjRsvz4WhmtQTJ-43">
          <mxGeometry width="50" height="50" relative="1" as="geometry">
            <mxPoint x="590" y="-45" as="sourcePoint" />
            <mxPoint x="638" y="-72" as="targetPoint" />
          </mxGeometry>
        </mxCell>
        <mxCell id="ZjFc2ZHjRsvz4WhmtQTJ-49" value="Cargo" style="rounded=0;whiteSpace=wrap;html=1;" vertex="1" parent="1">
          <mxGeometry x="600" y="-250" width="120" height="60" as="geometry" />
        </mxCell>
        <mxCell id="ZjFc2ZHjRsvz4WhmtQTJ-51" value="Tener" style="rhombus;whiteSpace=wrap;html=1;" vertex="1" parent="1">
          <mxGeometry x="-60" y="-180" width="80" height="80" as="geometry" />
        </mxCell>
        <mxCell id="ZjFc2ZHjRsvz4WhmtQTJ-52" value="" style="endArrow=none;html=1;rounded=0;exitX=0;exitY=0.5;exitDx=0;exitDy=0;entryX=1;entryY=0.425;entryDx=0;entryDy=0;entryPerimeter=0;" edge="1" parent="1" source="EQmgPOtzV4q--lYFnlzx-10" target="ZjFc2ZHjRsvz4WhmtQTJ-51">
          <mxGeometry width="50" height="50" relative="1" as="geometry">
            <mxPoint x="200" y="-530" as="sourcePoint" />
            <mxPoint y="-530" as="targetPoint" />
          </mxGeometry>
        </mxCell>
        <mxCell id="ZjFc2ZHjRsvz4WhmtQTJ-53" value="Platos" style="rounded=0;whiteSpace=wrap;html=1;" vertex="1" parent="1">
          <mxGeometry x="-260" y="-170" width="120" height="60" as="geometry" />
        </mxCell>
        <mxCell id="ZjFc2ZHjRsvz4WhmtQTJ-54" value="nombre" style="ellipse;whiteSpace=wrap;html=1;" vertex="1" parent="1">
          <mxGeometry x="-240" y="-70" width="80" height="50" as="geometry" />
        </mxCell>
        <mxCell id="ZjFc2ZHjRsvz4WhmtQTJ-55" value="&lt;b&gt;&lt;u&gt;idPlatos&lt;/u&gt;&lt;/b&gt;" style="ellipse;whiteSpace=wrap;html=1;" vertex="1" parent="1">
          <mxGeometry x="-130" y="-60" width="80" height="50" as="geometry" />
        </mxCell>
        <mxCell id="ZjFc2ZHjRsvz4WhmtQTJ-56" value="descripcion" style="ellipse;whiteSpace=wrap;html=1;" vertex="1" parent="1">
          <mxGeometry x="-350" y="-90" width="80" height="50" as="geometry" />
        </mxCell>
        <mxCell id="ZjFc2ZHjRsvz4WhmtQTJ-57" value="" style="endArrow=none;html=1;rounded=0;exitX=0;exitY=0.5;exitDx=0;exitDy=0;entryX=1;entryY=0.5;entryDx=0;entryDy=0;" edge="1" parent="1" source="ZjFc2ZHjRsvz4WhmtQTJ-51" target="ZjFc2ZHjRsvz4WhmtQTJ-53">
          <mxGeometry width="50" height="50" relative="1" as="geometry">
            <mxPoint x="180" y="-140" as="sourcePoint" />
            <mxPoint x="30" y="-136" as="targetPoint" />
          </mxGeometry>
        </mxCell>
        <mxCell id="ZjFc2ZHjRsvz4WhmtQTJ-58" value="" style="endArrow=none;html=1;rounded=0;exitX=0.5;exitY=0;exitDx=0;exitDy=0;entryX=1;entryY=1;entryDx=0;entryDy=0;" edge="1" parent="1" source="ZjFc2ZHjRsvz4WhmtQTJ-55" target="ZjFc2ZHjRsvz4WhmtQTJ-53">
          <mxGeometry width="50" height="50" relative="1" as="geometry">
            <mxPoint x="240" y="-170" as="sourcePoint" />
            <mxPoint x="240" y="-230" as="targetPoint" />
          </mxGeometry>
        </mxCell>
        <mxCell id="ZjFc2ZHjRsvz4WhmtQTJ-59" value="" style="endArrow=none;html=1;rounded=0;exitX=0.5;exitY=0;exitDx=0;exitDy=0;entryX=0.558;entryY=1.017;entryDx=0;entryDy=0;entryPerimeter=0;" edge="1" parent="1" source="ZjFc2ZHjRsvz4WhmtQTJ-54" target="ZjFc2ZHjRsvz4WhmtQTJ-53">
          <mxGeometry width="50" height="50" relative="1" as="geometry">
            <mxPoint x="-80" y="-50" as="sourcePoint" />
            <mxPoint x="-130" y="-100" as="targetPoint" />
          </mxGeometry>
        </mxCell>
        <mxCell id="ZjFc2ZHjRsvz4WhmtQTJ-60" value="" style="endArrow=none;html=1;rounded=0;exitX=1;exitY=0;exitDx=0;exitDy=0;entryX=0.158;entryY=1.033;entryDx=0;entryDy=0;entryPerimeter=0;" edge="1" parent="1" source="ZjFc2ZHjRsvz4WhmtQTJ-56" target="ZjFc2ZHjRsvz4WhmtQTJ-53">
          <mxGeometry width="50" height="50" relative="1" as="geometry">
            <mxPoint x="-190" y="-60" as="sourcePoint" />
            <mxPoint x="-183" y="-99" as="targetPoint" />
          </mxGeometry>
        </mxCell>
        <mxCell id="ZjFc2ZHjRsvz4WhmtQTJ-69" value="Tener" style="rhombus;whiteSpace=wrap;html=1;" vertex="1" parent="1">
          <mxGeometry x="-400" y="-270" width="80" height="80" as="geometry" />
        </mxCell>
        <mxCell id="ZjFc2ZHjRsvz4WhmtQTJ-70" value="productos" style="rounded=0;whiteSpace=wrap;html=1;" vertex="1" parent="1">
          <mxGeometry x="-520" y="-340" width="120" height="60" as="geometry" />
        </mxCell>
        <mxCell id="ZjFc2ZHjRsvz4WhmtQTJ-71" value="&lt;u&gt;&lt;b&gt;idProducto&lt;/b&gt;&lt;/u&gt;" style="ellipse;whiteSpace=wrap;html=1;" vertex="1" parent="1">
          <mxGeometry x="-630" y="-400" width="80" height="50" as="geometry" />
        </mxCell>
        <mxCell id="ZjFc2ZHjRsvz4WhmtQTJ-72" value="nombre" style="ellipse;whiteSpace=wrap;html=1;" vertex="1" parent="1">
          <mxGeometry x="-560" y="-440" width="80" height="50" as="geometry" />
        </mxCell>
        <mxCell id="ZjFc2ZHjRsvz4WhmtQTJ-74" value="origen" style="ellipse;whiteSpace=wrap;html=1;" vertex="1" parent="1">
          <mxGeometry x="-453" y="-450" width="80" height="50" as="geometry" />
        </mxCell>
        <mxCell id="ZjFc2ZHjRsvz4WhmtQTJ-75" value="peso" style="ellipse;whiteSpace=wrap;html=1;" vertex="1" parent="1">
          <mxGeometry x="-650" y="-330" width="80" height="50" as="geometry" />
        </mxCell>
        <mxCell id="ZjFc2ZHjRsvz4WhmtQTJ-76" value="" style="endArrow=none;html=1;rounded=0;exitX=0;exitY=0;exitDx=0;exitDy=0;entryX=1;entryY=0.5;entryDx=0;entryDy=0;" edge="1" parent="1" source="ZjFc2ZHjRsvz4WhmtQTJ-53" target="ZjFc2ZHjRsvz4WhmtQTJ-69">
          <mxGeometry width="50" height="50" relative="1" as="geometry">
            <mxPoint x="-50" y="-130" as="sourcePoint" />
            <mxPoint x="-130" y="-130" as="targetPoint" />
          </mxGeometry>
        </mxCell>
        <mxCell id="ZjFc2ZHjRsvz4WhmtQTJ-77" value="" style="endArrow=none;html=1;rounded=0;exitX=0;exitY=0.5;exitDx=0;exitDy=0;entryX=1;entryY=1;entryDx=0;entryDy=0;" edge="1" parent="1" source="ZjFc2ZHjRsvz4WhmtQTJ-69" target="ZjFc2ZHjRsvz4WhmtQTJ-70">
          <mxGeometry width="50" height="50" relative="1" as="geometry">
            <mxPoint x="-250" y="-160" as="sourcePoint" />
            <mxPoint x="-310" y="-220" as="targetPoint" />
          </mxGeometry>
        </mxCell>
        <mxCell id="ZjFc2ZHjRsvz4WhmtQTJ-78" value="" style="endArrow=none;html=1;rounded=0;exitX=1;exitY=0.5;exitDx=0;exitDy=0;entryX=0;entryY=0.5;entryDx=0;entryDy=0;" edge="1" parent="1" source="ZjFc2ZHjRsvz4WhmtQTJ-75" target="ZjFc2ZHjRsvz4WhmtQTJ-70">
          <mxGeometry width="50" height="50" relative="1" as="geometry">
            <mxPoint x="-390" y="-220" as="sourcePoint" />
            <mxPoint x="-440" y="-270" as="targetPoint" />
          </mxGeometry>
        </mxCell>
        <mxCell id="ZjFc2ZHjRsvz4WhmtQTJ-79" value="" style="endArrow=none;html=1;rounded=0;exitX=0.988;exitY=0.64;exitDx=0;exitDy=0;entryX=0;entryY=0;entryDx=0;entryDy=0;exitPerimeter=0;" edge="1" parent="1" source="ZjFc2ZHjRsvz4WhmtQTJ-71" target="ZjFc2ZHjRsvz4WhmtQTJ-70">
          <mxGeometry width="50" height="50" relative="1" as="geometry">
            <mxPoint x="-610" y="-295" as="sourcePoint" />
            <mxPoint x="-560" y="-300" as="targetPoint" />
          </mxGeometry>
        </mxCell>
        <mxCell id="ZjFc2ZHjRsvz4WhmtQTJ-80" value="" style="endArrow=none;html=1;rounded=0;exitX=0.5;exitY=1;exitDx=0;exitDy=0;entryX=0.308;entryY=-0.033;entryDx=0;entryDy=0;entryPerimeter=0;" edge="1" parent="1" source="ZjFc2ZHjRsvz4WhmtQTJ-72" target="ZjFc2ZHjRsvz4WhmtQTJ-70">
          <mxGeometry width="50" height="50" relative="1" as="geometry">
            <mxPoint x="-631" y="-358" as="sourcePoint" />
            <mxPoint x="-560" y="-330" as="targetPoint" />
          </mxGeometry>
        </mxCell>
        <mxCell id="ZjFc2ZHjRsvz4WhmtQTJ-81" value="" style="endArrow=none;html=1;rounded=0;exitX=0;exitY=1;exitDx=0;exitDy=0;entryX=1;entryY=0;entryDx=0;entryDy=0;" edge="1" parent="1" source="ZjFc2ZHjRsvz4WhmtQTJ-74" target="ZjFc2ZHjRsvz4WhmtQTJ-70">
          <mxGeometry width="50" height="50" relative="1" as="geometry">
            <mxPoint x="-550" y="-360" as="sourcePoint" />
            <mxPoint x="-523" y="-332" as="targetPoint" />
          </mxGeometry>
        </mxCell>
        <mxCell id="ZjFc2ZHjRsvz4WhmtQTJ-82" value="Nombre" style="ellipse;whiteSpace=wrap;html=1;" vertex="1" parent="1">
          <mxGeometry x="40" y="-380" width="60" height="30" as="geometry" />
        </mxCell>
        <mxCell id="ZjFc2ZHjRsvz4WhmtQTJ-83" value="&lt;b&gt;&lt;u&gt;idRestaurante&lt;/u&gt;&lt;/b&gt;" style="ellipse;whiteSpace=wrap;html=1;" vertex="1" parent="1">
          <mxGeometry x="50" y="-330" width="70" height="30" as="geometry" />
        </mxCell>
        <mxCell id="ZjFc2ZHjRsvz4WhmtQTJ-84" value="direccion" style="ellipse;whiteSpace=wrap;html=1;" vertex="1" parent="1">
          <mxGeometry x="60" y="-430" width="60" height="30" as="geometry" />
        </mxCell>
        <mxCell id="ZjFc2ZHjRsvz4WhmtQTJ-85" value="telefono" style="ellipse;whiteSpace=wrap;html=1;" vertex="1" parent="1">
          <mxGeometry x="320" y="-370" width="60" height="30" as="geometry" />
        </mxCell>
        <mxCell id="ZjFc2ZHjRsvz4WhmtQTJ-86" value="capacidad" style="ellipse;whiteSpace=wrap;html=1;" vertex="1" parent="1">
          <mxGeometry x="310" y="-325" width="60" height="30" as="geometry" />
        </mxCell>
        <mxCell id="ZjFc2ZHjRsvz4WhmtQTJ-87" value="" style="endArrow=none;html=1;rounded=0;exitX=1;exitY=0.75;exitDx=0;exitDy=0;entryX=0;entryY=0;entryDx=0;entryDy=0;" edge="1" parent="1" source="EQmgPOtzV4q--lYFnlzx-2" target="ZjFc2ZHjRsvz4WhmtQTJ-85">
          <mxGeometry width="50" height="50" relative="1" as="geometry">
            <mxPoint x="300" y="-400" as="sourcePoint" />
            <mxPoint x="420" y="-400" as="targetPoint" />
          </mxGeometry>
        </mxCell>
        <mxCell id="ZjFc2ZHjRsvz4WhmtQTJ-88" value="" style="endArrow=none;html=1;rounded=0;exitX=0.925;exitY=1.067;exitDx=0;exitDy=0;entryX=0;entryY=0.167;entryDx=0;entryDy=0;entryPerimeter=0;exitPerimeter=0;" edge="1" parent="1" source="EQmgPOtzV4q--lYFnlzx-2" target="ZjFc2ZHjRsvz4WhmtQTJ-86">
          <mxGeometry width="50" height="50" relative="1" as="geometry">
            <mxPoint x="300" y="-385" as="sourcePoint" />
            <mxPoint x="339" y="-356" as="targetPoint" />
          </mxGeometry>
        </mxCell>
        <mxCell id="ZjFc2ZHjRsvz4WhmtQTJ-89" value="" style="endArrow=none;html=1;rounded=0;exitX=0.15;exitY=1.033;exitDx=0;exitDy=0;entryX=1;entryY=0;entryDx=0;entryDy=0;exitPerimeter=0;" edge="1" parent="1" source="EQmgPOtzV4q--lYFnlzx-2" target="ZjFc2ZHjRsvz4WhmtQTJ-83">
          <mxGeometry width="50" height="50" relative="1" as="geometry">
            <mxPoint x="310" y="-375" as="sourcePoint" />
            <mxPoint x="349" y="-346" as="targetPoint" />
          </mxGeometry>
        </mxCell>
        <mxCell id="ZjFc2ZHjRsvz4WhmtQTJ-90" value="" style="endArrow=none;html=1;rounded=0;exitX=0;exitY=0.75;exitDx=0;exitDy=0;entryX=1;entryY=0.5;entryDx=0;entryDy=0;" edge="1" parent="1" source="EQmgPOtzV4q--lYFnlzx-2" target="ZjFc2ZHjRsvz4WhmtQTJ-82">
          <mxGeometry width="50" height="50" relative="1" as="geometry">
            <mxPoint x="198" y="-368" as="sourcePoint" />
            <mxPoint x="111" y="-316" as="targetPoint" />
          </mxGeometry>
        </mxCell>
        <mxCell id="ZjFc2ZHjRsvz4WhmtQTJ-91" value="" style="endArrow=none;html=1;rounded=0;exitX=0;exitY=0.5;exitDx=0;exitDy=0;entryX=1;entryY=0.5;entryDx=0;entryDy=0;" edge="1" parent="1" source="EQmgPOtzV4q--lYFnlzx-2" target="ZjFc2ZHjRsvz4WhmtQTJ-84">
          <mxGeometry width="50" height="50" relative="1" as="geometry">
            <mxPoint x="180" y="-385" as="sourcePoint" />
            <mxPoint x="110" y="-355" as="targetPoint" />
          </mxGeometry>
        </mxCell>
        <mxCell id="ZjFc2ZHjRsvz4WhmtQTJ-92" value="1:N" style="text;html=1;align=center;verticalAlign=middle;resizable=0;points=[];autosize=1;strokeColor=none;fillColor=none;" vertex="1" parent="1">
          <mxGeometry x="280" y="-560" width="40" height="30" as="geometry" />
        </mxCell>
        <mxCell id="ZjFc2ZHjRsvz4WhmtQTJ-93" value="1:N" style="text;html=1;align=center;verticalAlign=middle;resizable=0;points=[];autosize=1;strokeColor=none;fillColor=none;" vertex="1" parent="1">
          <mxGeometry x="155" y="-530" width="40" height="30" as="geometry" />
        </mxCell>
        <mxCell id="ZjFc2ZHjRsvz4WhmtQTJ-94" value="1:N" style="text;html=1;align=center;verticalAlign=middle;resizable=0;points=[];autosize=1;strokeColor=none;fillColor=none;" vertex="1" parent="1">
          <mxGeometry x="270" y="-295" width="40" height="30" as="geometry" />
        </mxCell>
        <mxCell id="ZjFc2ZHjRsvz4WhmtQTJ-96" value="N:M" style="text;html=1;align=center;verticalAlign=middle;resizable=0;points=[];autosize=1;strokeColor=none;fillColor=none;" vertex="1" parent="1">
          <mxGeometry x="-45" y="-210" width="50" height="30" as="geometry" />
        </mxCell>
        <mxCell id="ZjFc2ZHjRsvz4WhmtQTJ-97" value="N:M" style="text;html=1;align=center;verticalAlign=middle;resizable=0;points=[];autosize=1;strokeColor=none;fillColor=none;" vertex="1" parent="1">
          <mxGeometry x="-370" y="-295" width="50" height="30" as="geometry" />
        </mxCell>
        <mxCell id="ZjFc2ZHjRsvz4WhmtQTJ-98" value="1:N" style="text;html=1;align=center;verticalAlign=middle;resizable=0;points=[];autosize=1;strokeColor=none;fillColor=none;" vertex="1" parent="1">
          <mxGeometry x="430" y="-480" width="40" height="30" as="geometry" />
        </mxCell>
        <mxCell id="ZjFc2ZHjRsvz4WhmtQTJ-99" value="1:1" style="text;html=1;align=center;verticalAlign=middle;resizable=0;points=[];autosize=1;strokeColor=none;fillColor=none;" vertex="1" parent="1">
          <mxGeometry x="590" y="-325" width="40" height="30" as="geometry" />
        </mxCell>
      </root>
    </mxGraphModel>
  </diagram>
</mxfile>
